<svg width="500" height="500" viewBox="0 0 500 500" xmlns="http://www.w3.org/2000/svg" fill="#78288c" stroke-linejoin="round" stroke-miterlimit="2"><path d="M35.24 315.387C9.813 179.673 76.799 49.19 230.385 32.044c-16.332-17.102-40.278-24.774-63.498-20.343-23.54 7.556-22.667 22.958-49.403 42.72-26.446 15.111-39.814 3.487-59.139 19.325-19.18 15.693-5.812 51.583-13.804 58.558-8.137 13.949-32.984 26.445-37.488 44.172-3.778 22.522 10.171 38.651 9.59 58.122C18.24 250.58.658 259.735 3.274 272.813a94.421 94.421 0 0029.06 40.249c1.454 1.017 3.197 3.778 2.907 2.18v.145z" fill="#78288c"/><path d="M21.02 8.1a.703.703 0 01-.7-.7v-.01c0-.384.316-.7.7-.7.384 0 .7.316.7.7 0 .384-.316.7-.7.7v.01zM2.62 22C.95 13.92 6.13 7.15 16.16 10.48c5.9 3.47 13.3 3.24 13.63 1 .83-2.68-3.75-8.21-10.6-9.66C5.62-.85-1.7 13.91 2.62 22.01V22z" fill="#78288c" fill-rule="nonzero" transform="translate(2.983 10.248) scale(14.5304)"/><path d="M24.9 22.91a7.383 7.383 0 005.7-1.72c-2.68 3-6.03 4.52-9.87 4.93 1.83 1.57 3.6 2.28 5.3 1.97-4.71 1.31-8.65-.13-13.45-4.93-.25 1.3 1.11 3.3 2.5 4.6-8.11-3.55-8.82-14.58 1.08-17.3C5.89 5.52.09 15.15 2.94 23.05c2.8 6.09 10.23 10.77 18.38 9.74 3.95-.48 9.86-3.23 12.28-9.74-1.7 1.54-4.75 2.88-6.1 2.98 4.6-2.3 7.07-6.23 6.38-11.6a12.434 12.434 0 01-3.78 5.23c3.33-5.23 2.76-7.93.3-10.9 1.76 4.88-.53 10.3-5.5 14.16v-.01z" fill="#78288c" transform="translate(2.983 10.248) scale(14.5304)"/><path d="M22.54 28.54c-.35-.06.79.47-1.41-.12s-4.45-1.15-8.55-5.26c-.25 1.3 1.11 3.3 2.5 4.6 3.79 2.64 1.22 1.4 6.97 3.4.38-.819.548-1.719.49-2.62z" fill="#78288c" transform="translate(2.983 10.248) scale(14.5304)"/><path d="M15.22 7.73s.5-.74.7-1.08c.23-.41.6-1.16.6-1.16s-3.85-1.26-4.8-1.42c-2.94.77-2.95 2-1.3 3.9.18.22 4.8-.24 4.8-.24z" fill="#78288c" transform="translate(2.983 10.248) scale(14.5304)"/><defs><radialGradient id="_Radial1" cx="0" cy="0" r="1" gradientUnits="userSpaceOnUse" gradientTransform="matrix(25.6189 0 0 35.6015 23.808 9.264)"><stop offset="0" stop-color="#78288c"/><stop offset="1" stop-color="#78288c"/></radialGradient><radialGradient id="_Radial2" cx="0" cy="0" r="1" gradientUnits="userSpaceOnUse" gradientTransform="matrix(25.9717 0 0 34.1302 23.923 9.824)"><stop offset="0" stop-color="#57008e"/><stop offset=".29" stop-color="#5c008e"/><stop offset="1" stop-color="#f80090"/></radialGradient><linearGradient id="_Linear3" x1="0" y1="0" x2="1" y2="0" gradientUnits="userSpaceOnUse" gradientTransform="rotate(46.996 -19.447 28.11) scale(9.22621)"><stop offset="0" stop-color="#f70090"/><stop offset=".67" stop-color="#e50090"/><stop offset=".83" stop-color="#d6008f" stop-opacity=".2"/><stop offset="1" stop-color="#c10090" stop-opacity="0"/></linearGradient><linearGradient id="_Linear4" x1="0" y1="0" x2="1" y2="0" gradientUnits="userSpaceOnUse" gradientTransform="scale(-1.7138) rotate(29.876 3.467 -17.314)"><stop offset="0" stop-color="#b2008f" stop-opacity=".15"/><stop offset=".4" stop-color="#f70090" stop-opacity=".4"/><stop offset=".65" stop-color="#f60090" stop-opacity=".89"/><stop offset="1" stop-color="#ff0090"/></linearGradient></defs></svg>
